<mxfile host="app.diagrams.net" modified="2024-03-21T04:31:49.604Z" agent="Mozilla/5.0 (Windows NT 10.0; Win64; x64) AppleWebKit/537.36 (KHTML, like Gecko) Chrome/122.0.0.0 Safari/537.36 Edg/122.0.0.0" etag="MxWsq3QC-MLTX_gfCC_-" version="24.0.7" type="device">
  <diagram name="Page-1" id="RowuDxgvgW9YF4zvw25G">
    <mxGraphModel dx="1386" dy="785" grid="1" gridSize="10" guides="1" tooltips="1" connect="1" arrows="1" fold="1" page="1" pageScale="1" pageWidth="850" pageHeight="1100" math="0" shadow="0">
      <root>
        <mxCell id="0" />
        <mxCell id="1" parent="0" />
        <mxCell id="xGCCIm6WkX7jWZNfAPFq-1" value="Source" style="whiteSpace=wrap;html=1;aspect=fixed;" vertex="1" parent="1">
          <mxGeometry x="40" y="330" width="80" height="80" as="geometry" />
        </mxCell>
        <mxCell id="xGCCIm6WkX7jWZNfAPFq-2" value="router" style="ellipse;whiteSpace=wrap;html=1;aspect=fixed;" vertex="1" parent="1">
          <mxGeometry x="150" y="330" width="80" height="80" as="geometry" />
        </mxCell>
        <mxCell id="xGCCIm6WkX7jWZNfAPFq-3" value="router" style="ellipse;whiteSpace=wrap;html=1;aspect=fixed;" vertex="1" parent="1">
          <mxGeometry x="270" y="330" width="80" height="80" as="geometry" />
        </mxCell>
        <mxCell id="xGCCIm6WkX7jWZNfAPFq-4" value="router" style="ellipse;whiteSpace=wrap;html=1;aspect=fixed;" vertex="1" parent="1">
          <mxGeometry x="440" y="330" width="80" height="80" as="geometry" />
        </mxCell>
        <mxCell id="xGCCIm6WkX7jWZNfAPFq-5" value="router" style="ellipse;whiteSpace=wrap;html=1;aspect=fixed;" vertex="1" parent="1">
          <mxGeometry x="560" y="330" width="80" height="80" as="geometry" />
        </mxCell>
        <mxCell id="xGCCIm6WkX7jWZNfAPFq-6" value="Destination" style="whiteSpace=wrap;html=1;aspect=fixed;" vertex="1" parent="1">
          <mxGeometry x="700" y="320" width="80" height="80" as="geometry" />
        </mxCell>
        <mxCell id="xGCCIm6WkX7jWZNfAPFq-10" value="" style="endArrow=classic;startArrow=classic;html=1;rounded=0;exitX=1.038;exitY=0.613;exitDx=0;exitDy=0;exitPerimeter=0;" edge="1" parent="1">
          <mxGeometry width="50" height="50" relative="1" as="geometry">
            <mxPoint x="109.99999999999997" y="369.49999999999994" as="sourcePoint" />
            <mxPoint x="150" y="370" as="targetPoint" />
          </mxGeometry>
        </mxCell>
        <mxCell id="xGCCIm6WkX7jWZNfAPFq-12" value="" style="endArrow=classic;startArrow=classic;html=1;rounded=0;exitX=1.038;exitY=0.613;exitDx=0;exitDy=0;exitPerimeter=0;" edge="1" parent="1">
          <mxGeometry width="50" height="50" relative="1" as="geometry">
            <mxPoint x="229.99999999999997" y="369.49999999999994" as="sourcePoint" />
            <mxPoint x="270" y="370" as="targetPoint" />
          </mxGeometry>
        </mxCell>
        <mxCell id="xGCCIm6WkX7jWZNfAPFq-13" value="" style="endArrow=classic;startArrow=classic;html=1;rounded=0;exitX=1.038;exitY=0.613;exitDx=0;exitDy=0;exitPerimeter=0;" edge="1" parent="1">
          <mxGeometry width="50" height="50" relative="1" as="geometry">
            <mxPoint x="520" y="369.49999999999994" as="sourcePoint" />
            <mxPoint x="560" y="370" as="targetPoint" />
          </mxGeometry>
        </mxCell>
        <mxCell id="xGCCIm6WkX7jWZNfAPFq-14" value="" style="endArrow=classic;startArrow=classic;html=1;rounded=0;exitX=1.038;exitY=0.613;exitDx=0;exitDy=0;exitPerimeter=0;entryX=-0.012;entryY=0.638;entryDx=0;entryDy=0;entryPerimeter=0;" edge="1" parent="1" target="xGCCIm6WkX7jWZNfAPFq-6">
          <mxGeometry width="50" height="50" relative="1" as="geometry">
            <mxPoint x="630" y="369.49999999999994" as="sourcePoint" />
            <mxPoint x="670" y="370" as="targetPoint" />
          </mxGeometry>
        </mxCell>
        <mxCell id="xGCCIm6WkX7jWZNfAPFq-15" value="" style="endArrow=none;dashed=1;html=1;dashPattern=1 3;strokeWidth=2;rounded=0;exitX=1.025;exitY=0.625;exitDx=0;exitDy=0;exitPerimeter=0;" edge="1" parent="1">
          <mxGeometry width="50" height="50" relative="1" as="geometry">
            <mxPoint x="350" y="369.5" as="sourcePoint" />
            <mxPoint x="448" y="369.5" as="targetPoint" />
          </mxGeometry>
        </mxCell>
        <mxCell id="xGCCIm6WkX7jWZNfAPFq-16" value="&lt;pre style=&quot;color: rgb(0, 0, 0); font-style: normal; font-variant-ligatures: normal; font-variant-caps: normal; font-weight: 400; letter-spacing: normal; orphans: 2; text-align: start; text-indent: 0px; text-transform: none; widows: 2; word-spacing: 0px; -webkit-text-stroke-width: 0px; text-decoration-thickness: initial; text-decoration-style: initial; text-decoration-color: initial;&quot;&gt;&lt;code&gt;203.131.52.11&lt;/code&gt;&lt;/pre&gt;" style="text;whiteSpace=wrap;html=1;" vertex="1" parent="1">
          <mxGeometry x="690" y="280" width="120" height="60" as="geometry" />
        </mxCell>
        <mxCell id="xGCCIm6WkX7jWZNfAPFq-17" value="192.168.56.1" style="text;whiteSpace=wrap;" vertex="1" parent="1">
          <mxGeometry x="40" y="300" width="100" height="40" as="geometry" />
        </mxCell>
      </root>
    </mxGraphModel>
  </diagram>
</mxfile>
